<svg id="visual" viewBox="0 0 960 540" width="960" height="540" xmlns="http://www.w3.org/2000/svg" xmlns:xlink="http://www.w3.org/1999/xlink" version="1.1"><path d="M0 254L10.7 252.8C21.3 251.7 42.7 249.3 64 255.5C85.3 261.7 106.7 276.3 128 278.7C149.3 281 170.7 271 192 268.8C213.3 266.7 234.7 272.3 256 272.5C277.3 272.7 298.7 267.3 320 265.7C341.3 264 362.7 266 384 271.5C405.3 277 426.7 286 448 286.5C469.3 287 490.7 279 512 271.3C533.3 263.7 554.7 256.3 576 259.2C597.3 262 618.7 275 640 278.8C661.3 282.7 682.7 277.3 704 276.5C725.3 275.7 746.7 279.3 768 280C789.3 280.7 810.7 278.3 832 274.8C853.3 271.3 874.7 266.7 896 261.7C917.3 256.7 938.7 251.3 949.3 248.7L960 246L960 541L949.3 541C938.7 541 917.3 541 896 541C874.7 541 853.3 541 832 541C810.7 541 789.3 541 768 541C746.7 541 725.3 541 704 541C682.7 541 661.3 541 640 541C618.7 541 597.3 541 576 541C554.7 541 533.3 541 512 541C490.7 541 469.3 541 448 541C426.7 541 405.3 541 384 541C362.7 541 341.3 541 320 541C298.7 541 277.3 541 256 541C234.7 541 213.3 541 192 541C170.7 541 149.3 541 128 541C106.7 541 85.3 541 64 541C42.7 541 21.3 541 10.7 541L0 541Z" fill="#0066FF" stroke-linecap="round" stroke-linejoin="miter"></path></svg>