<svg width="36" height="36" viewBox="0 0 36 36" fill="none" xmlns="http://www.w3.org/2000/svg">
<path d="M17.8571 13.6414H21.4286V8.52588H26.7857V5.11553H21.4286V0H17.8571V5.11553H12.5V8.52588H17.8571V13.6414ZM10.7143 28.988C8.75 28.988 7.16071 30.5226 7.16071 32.3983C7.16071 34.274 8.75 35.8087 10.7143 35.8087C12.6786 35.8087 14.2857 34.274 14.2857 32.3983C14.2857 30.5226 12.6786 28.988 10.7143 28.988ZM28.5714 28.988C26.6071 28.988 25.0179 30.5226 25.0179 32.3983C25.0179 34.274 26.6071 35.8087 28.5714 35.8087C30.5357 35.8087 32.1429 34.274 32.1429 32.3983C32.1429 30.5226 30.5357 28.988 28.5714 28.988ZM12.6786 20.4621H25.9821C27.3214 20.4621 28.5 19.763 29.1071 18.7058L36 6.75249L32.8929 5.11553L25.9821 17.0518H13.4464L5.83929 1.70518H0V5.11553H3.57143L10 18.0578L7.58928 22.2184C6.28571 24.5034 8 27.2828 10.7143 27.2828H32.1429V23.8725H10.7143L12.6786 20.4621Z" fill="white"/>
</svg>
