<svg width="24" height="24" viewBox="0 0 24 24" fill="none" xmlns="http://www.w3.org/2000/svg">
<g clip-path="url(#clip0_1232_2620)">
<path d="M9.61626 9.71924L8.21917 14.3782C8.10052 14.7744 8.20892 15.2043 8.50152 15.4966C8.71539 15.7104 9.00286 15.8262 9.29693 15.8262C9.40496 15.8262 9.51372 15.8108 9.61992 15.7786L14.2792 14.3818C14.4576 14.3284 14.6202 14.2317 14.7516 14.0998L23.2939 5.55762C23.5048 5.34669 23.6235 5.06031 23.6235 4.76221C23.6235 4.46412 23.5048 4.17774 23.2939 3.9668L20.0313 0.704591C19.5918 0.265136 18.8799 0.265136 18.4405 0.704591L9.89862 9.24683C9.76677 9.37866 9.6701 9.54053 9.61626 9.71924ZM11.6901 10.637L19.2359 3.09082L20.9073 4.76221L13.3615 12.3084L10.9745 13.0239L11.6901 10.637Z" fill="#DC6099"/>
<path d="M22.5 10.875C21.8785 10.875 21.375 11.3789 21.375 12V19.5C21.375 20.5342 20.5338 21.375 19.5 21.375H4.5C3.46619 21.375 2.625 20.5342 2.625 19.5V4.5C2.625 3.46582 3.46619 2.625 4.5 2.625H12C12.6215 2.625 13.125 2.12109 13.125 1.5C13.125 0.87891 12.6215 0.375 12 0.375H4.5C2.22547 0.375 0.375 2.22583 0.375 4.5V19.5C0.375 21.7742 2.22547 23.625 4.5 23.625H19.5C21.7745 23.625 23.625 21.7742 23.625 19.5V12C23.625 11.3789 23.1215 10.875 22.5 10.875Z" fill="#DC6099"/>
</g>
<defs>
<clipPath id="clip0_1232_2620">
<rect width="24" height="24" fill="white"/>
</clipPath>
</defs>
</svg>
