<svg width="53" height="50" viewBox="0 0 53 50" fill="none" xmlns="http://www.w3.org/2000/svg">
<path d="M43.5206 17.0575L52.7725 8.33001C52.8452 8.26211 52.9028 8.18135 52.9423 8.09236C52.9817 8.00337 53.0021 7.90791 53.0024 7.81146C53.0026 7.71501 52.9826 7.61946 52.9436 7.53031C52.9046 7.44115 52.8473 7.36015 52.775 7.29194C52.7027 7.22374 52.6169 7.16967 52.5224 7.13286C52.4279 7.09604 52.3266 7.07719 52.2243 7.0774C52.1221 7.07761 52.0209 7.09686 51.9266 7.13406C51.8323 7.17126 51.7466 7.22567 51.6747 7.29417L41.1675 17.2058L39.3432 18.9269C38.7162 17.8861 37.9503 16.9255 37.0644 16.0685L49.02 4.79016C49.1656 4.65282 49.2474 4.46652 49.2475 4.27226C49.2475 4.07801 49.1657 3.8917 49.0201 3.75432C48.8745 3.61695 48.677 3.53976 48.4711 3.53975C48.2652 3.53973 48.0677 3.61688 47.9221 3.75423L35.9234 15.0731C34.933 14.2958 33.8393 13.6439 32.6699 13.1339L34.7597 11.1625L45.2674 1.25042C45.3395 1.18241 45.3967 1.10167 45.4357 1.01281C45.4747 0.923948 45.4948 0.828705 45.4948 0.732518C45.4948 0.636332 45.4747 0.541085 45.4357 0.452217C45.3967 0.363349 45.3395 0.282599 45.2675 0.214578C45.1954 0.146558 45.1098 0.0925982 45.0156 0.0557808C44.9214 0.0189634 44.8204 9.07023e-06 44.7185 3.25449e-09C44.6165 -9.06373e-06 44.5156 0.0189273 44.4214 0.055728C44.3272 0.0925286 44.2416 0.146473 44.1695 0.214481L34.9186 8.94104L34.9175 8.94202L31.0941 12.5488C29.0398 11.9136 26.8625 11.7126 24.7166 11.9598C22.5708 12.207 20.5088 12.8965 18.6769 13.9794L4.13366 0.260184C4.03171 0.164001 3.90338 0.0965019 3.76305 0.0652515C3.62273 0.0340011 3.47595 0.0402337 3.33916 0.083251C3.20238 0.126268 3.08099 0.20437 2.98861 0.308806C2.89623 0.413241 2.8365 0.539882 2.81612 0.674539C2.33028 3.91026 2.64551 7.20817 3.7371 10.3097C4.83655 13.4089 6.68202 16.2256 9.12881 18.5392L12.4092 21.6336C11.2671 25.09 11.597 28.8301 13.3291 32.0609L1.5965 42.1311C1.5875 42.1389 1.57867 42.1468 1.57 42.1549L1.40551 42.3112C0.508271 43.1548 0.00274796 44.3 1.117e-05 45.4951C-0.00272562 46.6902 0.497548 47.8375 1.39092 48.6848C1.83115 49.1034 2.35521 49.4353 2.93263 49.6611C3.51004 49.8869 4.12928 50.0022 4.75434 50.0002C4.79948 50.0002 4.84492 49.9996 4.89026 49.9984C5.54369 49.9835 6.18688 49.8419 6.77982 49.5824C7.37275 49.3229 7.90274 48.9511 8.33681 48.4901L18.7917 37.6509C20.8132 38.8217 23.1045 39.5148 25.4707 39.6713C27.837 39.8279 30.2083 39.4432 32.3833 38.55L41.2161 48.3288C41.6565 48.8151 42.1985 49.2105 42.8083 49.4901C43.418 49.7697 44.0824 49.9276 44.7598 49.9538C44.8247 49.9563 44.8893 49.9575 44.9538 49.9574C45.9256 49.9579 46.8758 49.6864 47.684 49.1773C48.4922 48.6682 49.1223 47.9444 49.4944 47.0974C49.8664 46.2505 49.9639 45.3184 49.7744 44.4192C49.5849 43.52 49.1169 42.694 48.4297 42.0457L39.0107 33.1607C40.2739 31.2587 41.0302 29.0965 41.215 26.8588C41.3998 24.6211 41.0076 22.3745 40.0719 20.3109L43.5206 17.0575ZM10.2267 17.5033C7.95015 15.3508 6.23309 12.73 5.21012 9.84651C4.36468 7.44398 4.018 4.91023 4.18905 2.38391L17.3879 14.8349C15.4956 16.2392 13.9937 18.0567 13.0118 20.1306L10.2267 17.5033ZM7.18437 47.5084C6.8904 47.8216 6.5312 48.0743 6.12917 48.2508C5.72714 48.4272 5.29089 48.5237 4.84761 48.5341C4.4182 48.5459 3.99068 48.476 3.59049 48.3286C3.1903 48.1813 2.82563 47.9595 2.5182 47.6764C2.21077 47.3933 1.96686 47.0548 1.80099 46.6809C1.63512 46.3071 1.55068 45.9056 1.55271 45.5003C1.5531 45.1 1.63727 44.7038 1.8004 44.3343C1.96353 43.9648 2.20239 43.6293 2.50329 43.3471L2.65588 43.2023L14.1236 33.3594C15.0364 34.6808 16.1786 35.8476 17.5024 36.8109L7.18437 47.5084ZM47.3318 43.0817C47.6518 43.3835 47.904 43.7433 48.0731 44.1394C48.2421 44.5354 48.3246 44.9596 48.3157 45.3865C48.3067 45.8134 48.2063 46.2342 48.0207 46.6236C47.8351 47.013 47.568 47.363 47.2355 47.6526C46.9029 47.9423 46.5118 48.1655 46.0855 48.309C45.6593 48.4525 45.2067 48.5133 44.7549 48.4877C44.3031 48.4622 43.8615 48.3507 43.4565 48.1602C43.0515 47.9696 42.6914 47.7038 42.398 47.3787L33.812 37.8732C35.4671 36.9782 36.9243 35.7912 38.104 34.3769L47.3318 43.0817ZM26.5 38.2405C23.8879 38.2405 21.3345 37.5097 19.1626 36.1407C16.9908 34.7716 15.298 32.8257 14.2984 30.5491C13.2988 28.2724 13.0373 25.7673 13.5469 23.3504C14.0565 20.9336 15.3144 18.7135 17.1614 16.9711C19.0084 15.2286 21.3617 14.042 23.9236 13.5613C26.4855 13.0806 29.1409 13.3273 31.5542 14.2704C33.9674 15.2134 36.03 16.8104 37.4812 18.8593C38.9323 20.9083 39.7068 23.3172 39.7068 25.7814C39.7028 29.0846 38.3101 32.2515 35.8342 34.5872C33.3583 36.923 30.0014 38.2367 26.5 38.2405ZM29.7789 19.772C29.132 19.7703 28.4911 19.8897 27.8933 20.1233C27.2956 20.3568 26.7529 20.6999 26.2967 21.1326L25.8678 21.5373L25.4389 21.1327C24.9816 20.7013 24.4388 20.3591 23.8413 20.1256C23.2438 19.8922 22.6034 19.772 21.9567 19.772C21.31 19.772 20.6696 19.8922 20.0721 20.1256C19.4746 20.3591 18.9317 20.7013 18.4744 21.1327C18.0171 21.5642 17.6544 22.0763 17.4069 22.64C17.1594 23.2037 17.032 23.8078 17.032 24.4179C17.032 25.028 17.1594 25.6321 17.4069 26.1958C17.6544 26.7595 18.0171 27.2716 18.4744 27.7031L24.853 33.7208C24.9863 33.8465 25.1445 33.9462 25.3185 34.0143C25.4926 34.0823 25.6792 34.1173 25.8676 34.1173C26.0561 34.1173 26.2427 34.0823 26.4168 34.0143C26.5908 33.9462 26.749 33.8465 26.8823 33.7208L33.261 27.7032C33.9498 27.0534 34.4188 26.2256 34.6089 25.3244C34.7989 24.4231 34.7014 23.489 34.3286 22.64C33.9559 21.7911 33.3247 21.0654 32.5148 20.5549C31.7049 20.0444 30.753 19.772 29.7789 19.772ZM32.1632 26.6672L25.8677 32.6065L19.5724 26.6672C18.9421 26.0702 18.5887 25.2618 18.5895 24.4192C18.5904 23.5766 18.9456 22.7688 19.5771 22.173C20.2086 21.5772 21.0649 21.2422 21.958 21.2413C22.8512 21.2405 23.7081 21.5739 24.341 22.1685L24.9463 22.7396C25.1907 22.9701 25.5222 23.0996 25.8678 23.0996C26.2134 23.0996 26.5449 22.9701 26.7893 22.7396L27.3946 22.1685C27.7077 21.8731 28.0794 21.6388 28.4885 21.4789C28.8976 21.319 29.3361 21.2368 29.7789 21.2368C30.2217 21.2368 30.6602 21.319 31.0693 21.4789C31.4784 21.6388 31.8501 21.8731 32.1632 22.1685C32.4763 22.4639 32.7247 22.8146 32.8942 23.2005C33.0636 23.5864 33.1508 24.0001 33.1508 24.4179C33.1508 24.8356 33.0636 25.2493 32.8942 25.6352C32.7247 26.0211 32.4763 26.3718 32.1632 26.6672Z" fill="white"/>
</svg>
