<svg width="53" height="52" viewBox="0 0 53 52" fill="none" xmlns="http://www.w3.org/2000/svg">
<path fill-rule="evenodd" clip-rule="evenodd" d="M38.8696 17.422C39.674 18.2992 39.4275 19.6474 38.4471 20.3274L33.1646 23.9912C32.1842 24.6712 30.8447 24.3968 29.8759 23.7007C29.628 23.5224 29.3669 23.3612 29.0946 23.2183C28.1805 22.7385 27.1645 22.4796 26.1298 22.4625C25.095 22.4455 24.0708 22.671 23.1411 23.1203C22.864 23.2542 22.5977 23.4067 22.3439 23.5768C21.3523 24.2407 20.0043 24.4709 19.0473 23.759L13.8911 19.9233C12.9341 19.2115 12.7329 17.8559 13.5666 17.0058C14.9598 15.5848 16.5953 14.409 18.4035 13.5351C20.863 12.3465 23.5721 11.7503 26.3092 11.7953C29.0463 11.8404 31.7339 12.5253 34.152 13.7942C35.9297 14.7271 37.5247 15.9561 38.8696 17.422ZM37.0745 18.6604C35.9383 17.4665 34.6086 16.4613 33.1355 15.6883C31.0198 14.5779 28.6682 13.9786 26.2731 13.9392C23.8781 13.8998 21.5077 14.4215 19.3557 15.4615C17.8574 16.1856 16.4946 17.1466 15.3189 18.3024L20.3466 22.0424C20.3629 22.0476 20.4051 22.0557 20.4886 22.0482C20.6586 22.0331 20.8972 21.9559 21.1282 21.8013C21.4659 21.5751 21.8203 21.372 22.1889 21.1938C23.4261 20.5959 24.7889 20.2961 26.1658 20.3187C26.2212 20.3196 26.2764 20.3211 26.3316 20.323C26.373 20.2371 26.4267 20.1552 26.493 20.0799L29.4706 16.6944C29.8636 16.2477 30.5484 16.2005 31.0001 16.589C31.452 16.9777 31.4997 17.6548 31.1067 18.1015L28.7709 20.7573C29.2314 20.9085 29.6797 21.0979 30.111 21.3242C30.4734 21.5144 30.8208 21.729 31.1507 21.9662C31.3763 22.1284 31.6123 22.2134 31.7816 22.234C31.8649 22.2442 31.9074 22.2375 31.9237 22.2328L37.0745 18.6604ZM31.9321 22.2294C31.9324 22.2296 31.9294 22.2312 31.9237 22.2328C31.9285 22.2301 31.9319 22.229 31.9321 22.2294ZM20.3384 22.0385C20.3386 22.0383 20.342 22.0395 20.3466 22.0424C20.3411 22.0405 20.3381 22.0389 20.3384 22.0385Z" fill="white"/>
<path fill-rule="evenodd" clip-rule="evenodd" d="M39.2662 45.0275C41.5678 45.0275 43.4685 43.2496 43.5962 40.9771L45.2828 10.9588C45.4208 8.50075 43.4424 6.43262 40.9527 6.43262H11.0908C8.60112 6.43262 6.62262 8.50074 6.76072 10.9588L8.44722 40.9771C8.5749 43.2495 10.4756 45.0275 12.7772 45.0275H39.2662ZM12.7772 42.8833H39.2662C40.417 42.8833 41.3674 41.9944 41.4312 40.8581L43.1177 10.8398C43.1867 9.61084 42.1975 8.57678 40.9527 8.57678H11.0908C9.84595 8.57678 8.8567 9.61084 8.92575 10.8398L10.6123 40.8581C10.6761 41.9944 11.6265 42.8833 12.7772 42.8833Z" fill="white"/>
</svg>
